<?xml version="1.0" standalone="no"?><!DOCTYPE svg PUBLIC "-//W3C//DTD SVG 1.1//EN" "http://www.w3.org/Graphics/SVG/1.1/DTD/svg11.dtd"><svg t="1511344242765" class="icon" style="" viewBox="0 0 1024 1024" version="1.1" xmlns="http://www.w3.org/2000/svg" p-id="1954" xmlns:xlink="http://www.w3.org/1999/xlink" width="200" height="200"><defs><style type="text/css"></style></defs><path d="M619.434518 0c42.632745 0 78.444251 35.811506 78.444251 78.444251 0 42.632745-35.811506 78.444251-78.444251 78.444251-42.632745 0-78.444251-35.811506-78.444251-78.444251C540.990267 35.811506 576.801773 0 619.434518 0L619.434518 0z" p-id="1955" fill="#ffffff"></path><path d="M431.850439 431.443382c-5.115929 3.41062-10.231859 6.821239-11.937169 6.821239l-47.748675 32.400886-40.927435 23.874337-86.9708 28.990267c0 0 0 0-18.758408 11.937169-1.70531 0-23.874337 6.821239-25.579647 8.526549-18.758408 13.642478-3.41062 1.70531-17.053098 11.937169-1.70531 8.526549-15.347788 22.169028-20.463718 15.347788 5.115929-8.526549 6.821239-17.053098 13.642478-23.874337-10.231859 5.115929-27.284957 11.937169-37.516816 18.758408-6.821239 1.70531-6.821239-1.70531-6.821239-5.115929 6.821239-10.231859 22.169028-13.642478 32.400886-22.169028-6.821239-3.41062-23.874337 3.41062-39.222126 5.115929-1.70531 0-5.115929 0-6.821239-1.70531-1.70531 0-3.41062 1.70531-3.41062 0-1.70531 0-6.821239-3.41062-1.70531-8.526549 6.821239-1.70531 18.758408-3.41062 23.874337-5.115929 5.115929-1.70531 11.937169-5.115929 18.758408-6.821239l27.284957-13.642478 30.695577-8.526549c13.642478-8.526549 28.990267-11.937169 42.632745-18.758408 18.758408-10.231859 23.874337-18.758408 40.927435-28.990267l42.632745-37.516816c0 0 25.579647-11.937169 34.106196-22.169028 5.115929-6.821239 32.400886-27.284957 51.159294-40.927435 10.231859-13.642478 28.990267-34.106196 68.212392-40.927435 5.115929-5.115929 3.41062-8.526549 3.41062-11.937169 0-8.526549 0-10.231859 3.41062-11.937169-3.41062-10.231859 0-13.642478 5.115929-17.053098-1.70531-3.41062-5.115929-8.526549-6.821239-13.642478 10.231859-8.526549 15.347788-11.937169 25.579647-17.053098l8.526549-15.347788c46.043365-30.695577 85.26549-10.231859 86.9708 0 8.526549-1.70531 46.043365-66.507083 46.043365-66.507083C665.477883 150.067263 658.656644 143.246024 656.951334 136.424785c1.70531-17.053098 10.231859-25.579647 10.231859-5.115929 1.70531 1.70531 5.115929 1.70531 6.821239 3.41062l15.347788-27.284957 1.70531-17.053098 0-11.937169 0-15.347788c6.821239 1.70531 6.821239 6.821239 10.231859 13.642478 0 6.821239 1.70531 10.231859 1.70531 17.053098l5.115929 15.347788c1.70531 6.821239-1.70531 30.695577-5.115929 47.748675-1.70531 5.115929-51.159294 117.666377-56.275224 129.603545-5.115929 11.937169-28.990267 32.400886-28.990267 32.400886-1.70531 8.526549 5.115929 17.053098-3.41062 30.695577-6.821239 10.231859 25.579647 75.033632 5.115929 114.255757-20.463718 39.222126-20.463718 52.864604-35.811506 73.328322-13.642478 20.463718-8.526549 42.632745-10.231859 52.864604-1.70531 10.231859 0 28.990267-5.115929 34.106196-5.115929 5.115929 10.231859 15.347788 15.347788 15.347788 5.115929 0 22.169028 47.748675 23.874337 64.801773 1.70531 17.053098 1.70531 40.927435-6.821239 57.980533-3.41062 6.821239 0 22.169028 0 22.169028l3.41062 23.874337 3.41062 22.169028c0 0 22.169028-3.41062 25.579647-8.526549 3.41062-5.115929 49.453984-28.990267 49.453984-35.811506s8.526549-32.400886 15.347788-35.811506c6.821239-3.41062 13.642478 0 13.642478 0s-5.115929-44.338055 0-47.748675c5.115929-3.41062 28.990267-8.526549 47.748675-8.526549 3.41062 0 11.937169 5.115929 20.463718 3.41062 39.222126-5.115929 109.139828 6.821239 126.192926 18.758408 6.821239 15.347788 3.41062 20.463718-5.115929 27.284957-8.526549 6.821239-39.222126 10.231859-57.980533 13.642478-17.053098 3.41062-42.632745 13.642478-34.106196 20.463718 8.526549 6.821239 61.391153 17.053098 64.801773 44.338055 3.41062 28.990267 1.70531 37.516816-61.391153 28.990267-35.811506 1.70531-44.338055 8.526549-56.275224 15.347788-27.284957-8.526549-17.053098 17.053098-25.579647 20.463718-8.526549 3.41062-44.338055 1.70531-44.338055 1.70531s-75.033632 124.487616-115.961067 129.603545c-40.927435 5.115929-32.400886-22.169028-37.516816-22.169028-3.41062 0-57.980533 47.748675-85.26549 18.758408-18.758408-27.284957-13.642478-52.864604-13.642478-52.864604-5.115929 0-8.526549 0-11.937169 0 0 0-18.758408-59.685843-13.642478-93.792039 5.115929-35.811506-30.695577-107.434518-8.526549-143.246024 20.463718-34.106196-3.41062-42.632745 15.347788-54.569914 0 0-8.526549-10.231859-6.821239-18.758408 3.41062-6.821239 5.115929-13.642478 6.821239-13.642478 3.41062-1.70531-6.821239-122.782306 11.937169-156.888502C447.198227 448.49648 426.73451 445.08586 431.850439 431.443382L431.850439 431.443382z" p-id="1956" fill="#ffffff"></path></svg>